<svg xmlns="http://www.w3.org/2000/svg" xmlns:xlink="http://www.w3.org/1999/xlink" width="180" height="180" viewBox="0 0 100 100" version="1.0">
  <defs>
    <mask id="apple-fav-mask-main">
      <g fill="white">
        <svg viewBox="0 0 249 249" width="60" height="60" x="0" y="0" preserveAspectRatio="xMidYMid meet">
          <g transform="scale(1, 1) skewX(0)">
            <path fill-rule="evenodd" clip-rule="evenodd" d="M125 0c68,0 124,56 124,125 0,68 -56,124 -124,124 -69,0 -125,-56 -125,-124 0,-69 56,-125 125,-125z" />
          </g>
        </svg>
      </g>
      <g fill="black">
        <svg viewBox="0 0 95.25600000000001 48.02400000000001" width="45" height="45" x="7.5" y="7.5">
          <path transform="translate(-1.8720000000000003 48.02400000000001)" d="M1.87-48.02L43.70-48.02L43.70-39.46L14.62 0L2.09 0L32.26-39.46L1.87-39.46L1.87-48.02ZM57.60 0L45.65 0L65.52-48.02L77.26-48.02L97.13 0L85.18 0L80.50-11.09L62.28-11.09L57.60 0ZM78.26-19.66L71.42-36.43L64.58-19.66L78.26-19.66Z" />
        </svg>
      </g>
    </mask>
  </defs>
  <rect width="100" height="100" fill="transparent" />
  <g fill="none">
    <rect fill="none" stroke-width="2" x="0" y="0" width="100" height="100" />
    <svg viewBox="0 0 60 60" x="0" y="0" width="100" height="100" style="overflow: visible">
      <g mask="url(#apple-fav-mask-main)">
        <g>
          <svg viewBox="0 0 249 249" width="60" height="60">
            <g transform="scale(1, 1) skewX(0)">
              <path fill="#050508" fill-rule="evenodd" clip-rule="evenodd" d="M125 0c68,0 124,56 124,125 0,68 -56,124 -124,124 -69,0 -125,-56 -125,-124 0,-69 56,-125 125,-125z" />
            </g>
          </svg>
        </g>
        <g>
          <svg viewBox="0 0 95.25600000000001 48.02400000000001" width="45" height="45" x="7.5" y="7.5">
            <path fill="#e4e4e7" transform="translate(-1.8720000000000003 48.02400000000001)" d="M1.87-48.02L43.70-48.02L43.70-39.46L14.62 0L2.09 0L32.26-39.46L1.87-39.46L1.87-48.02ZM57.60 0L45.65 0L65.52-48.02L77.26-48.02L97.13 0L85.18 0L80.50-11.09L62.28-11.09L57.60 0ZM78.26-19.66L71.42-36.43L64.58-19.66L78.26-19.66Z" />
          </svg>
        </g>
      </g>
    </svg>
  </g>
</svg>
